{"asset":{"version":"2.0","generator":"babylon.js glTF exporter for 3ds max 2017 v1.3.4"},"scene":0,"scenes":[{"nodes":[0,1,2,3,4],"extensions":{}}],"nodes":[{"mesh":0,"translation":[-18.939743,6.74035358,-18.1197166],"rotation":[0.0,-0.537299633,0.0,0.8433914],"scale":[1.0,1.0,1.0],"name":"tetera"},{"mesh":1,"translation":[0.0,0.0,0.0],"rotation":[0.0,0.0,0.0,1.0],"scale":[1.0,1.0,1.0],"name":"Mesh001"},{"mesh":2,"translation":[-0.2663026,0.0,21.9092712],"rotation":[0.0,0.0,0.0,1.0],"scale":[1.0,1.0,1.0],"name":"Cone001"},{"mesh":3,"translation":[22.5808945,0.127124786,-10.625927],"rotation":[0.0,-0.342020154,0.0,0.9396926],"scale":[0.99999994,1.0,0.99999994],"name":"Box001"},{"translation":[0.0,0.0,0.0],"rotation":[0.0,0.0,0.0,1.0],"scale":[1.0,1.0,1.0],"name":"Default light"}],"meshes":[{"primitives":[{"attributes":{"POSITION":1,"NORMAL":2,"TEXCOORD_0":3},"indices":0,"mode":4,"material":0}],"name":"tetera"},{"primitives":[{"attributes":{"POSITION":5,"NORMAL":6,"TEXCOORD_0":7},"indices":4,"mode":4,"material":1}],"name":"Mesh001"},{"primitives":[{"attributes":{"POSITION":9,"NORMAL":10,"TEXCOORD_0":11},"indices":8,"mode":4,"material":2}],"name":"Cone001"},{"primitives":[{"attributes":{"POSITION":13,"NORMAL":14,"TEXCOORD_0":15},"indices":12,"mode":4,"material":3}],"name":"Box001"}],"accessors":[{"bufferView":0,"componentType":5123,"count":3072,"type":"SCALAR","name":"accessorIndices"},{"bufferView":1,"componentType":5126,"count":3072,"max":[8.559179,6.74035263,13.7548637],"min":[-8.559177,-6.74035263,-13.7548723],"type":"VEC3","name":"accessorPositions"},{"bufferView":1,"byteOffset":36864,"componentType":5126,"count":3072,"type":"VEC3","name":"accessorNormals"},{"bufferView":2,"componentType":5126,"count":3072,"type":"VEC2","name":"accessorUVs"},{"bufferView":0,"byteOffset":6144,"componentType":5123,"count":36,"type":"SCALAR","name":"accessorIndices"},{"bufferView":1,"byteOffset":73728,"componentType":5126,"count":36,"max":[50.0,50.0,50.0],"min":[-50.0,0.0,-50.0],"type":"VEC3","name":"accessorPositions"},{"bufferView":1,"byteOffset":74160,"componentType":5126,"count":36,"type":"VEC3","name":"accessorNormals"},{"bufferView":2,"byteOffset":24576,"componentType":5126,"count":36,"type":"VEC2","name":"accessorUVs"},{"bufferView":0,"byteOffset":6216,"componentType":5123,"count":384,"type":"SCALAR","name":"accessorIndices"},{"bufferView":1,"byteOffset":74592,"componentType":5126,"count":384,"max":[10.8668919,27.7073364,10.8668938],"min":[-10.8668938,0.0,-10.8668928],"type":"VEC3","name":"accessorPositions"},{"bufferView":1,"byteOffset":79200,"componentType":5126,"count":384,"type":"VEC3","name":"accessorNormals"},{"bufferView":2,"byteOffset":24864,"componentType":5126,"count":384,"type":"VEC2","name":"accessorUVs"},{"bufferView":0,"byteOffset":6984,"componentType":5123,"count":36,"type":"SCALAR","name":"accessorIndices"},{"bufferView":1,"byteOffset":83808,"componentType":5126,"count":36,"max":[8.564515,12.6532955,6.05594444],"min":[-8.564516,0.0,-6.05594444],"type":"VEC3","name":"accessorPositions"},{"bufferView":1,"byteOffset":84240,"componentType":5126,"count":36,"type":"VEC3","name":"accessorNormals"},{"bufferView":2,"byteOffset":27936,"componentType":5126,"count":36,"type":"VEC2","name":"accessorUVs"}],"bufferViews":[{"buffer":0,"byteLength":7056,"name":"bufferViewScalar"},{"buffer":0,"byteOffset":7056,"byteLength":84672,"byteStride":12,"name":"bufferViewFloatVec3"},{"buffer":0,"byteOffset":91728,"byteLength":28224,"byteStride":8,"name":"bufferViewFloatVec2"}],"buffers":[{"uri":"luces.bin","byteLength":119952}],"materials":[{"pbrMetallicRoughness":{"baseColorFactor":[0.666289747,0.4960977,0.202516422,1.0],"metallicFactor":0.2297228,"roughnessFactor":0.94},"emissiveFactor":[0.0,0.0,0.0],"alphaMode":"OPAQUE","name":"tetera"},{"pbrMetallicRoughness":{"baseColorFactor":[0.631449342,0.631449342,0.631449342,1.0],"metallicFactor":0.160622209,"roughnessFactor":0.9},"emissiveFactor":[0.0,0.0,0.0],"alphaMode":"OPAQUE","name":"paredes"},{"pbrMetallicRoughness":{"baseColorFactor":[0.8543232,0.2309715,0.2309715,1.0],"metallicFactor":0.635546565,"roughnessFactor":0.76},"emissiveFactor":[0.0,0.0,0.0],"alphaMode":"OPAQUE","name":"cono"},{"pbrMetallicRoughness":{"baseColorFactor":[0.7898693,0.824226856,0.9960146,1.0],"metallicFactor":0.955981433,"roughnessFactor":0.53},"emissiveFactor":[0.0,0.0,0.0],"alphaMode":"OPAQUE","name":"azul"}]}